<?xml version="1.0" encoding="utf-8"?>
<!-- Generator: Adobe Illustrator 12.0.0, SVG Export Plug-In . SVG Version: 6.00 Build 51448)  -->
<!DOCTYPE svg PUBLIC "-//W3C//DTD SVG 1.1//EN" "http://www.w3.org/Graphics/SVG/1.1/DTD/svg11.dtd" [
	<!ENTITY ns_svg "http://www.w3.org/2000/svg">
	<!ENTITY ns_xlink "http://www.w3.org/1999/xlink">
]>
<svg  version="1.1" id="Layer_1" xmlns="&ns_svg;" xmlns:xlink="&ns_xlink;" width="460.958" height="385.023"
	 viewBox="0 0 460.958 385.023" overflow="visible" enable-background="new 0 0 460.958 385.023" xml:space="preserve">
<line fill="none" stroke="#ED1C24" stroke-width="0.8" x1="229.338" y1="179.125" x2="259.475" y2="196.522"/>
<polyline fill="none" stroke="#ED1C24" stroke-width="0.8" points="209.722,170.621 209.579,170.483 192.169,141.538 "/>
<polyline fill="none" stroke="#ED1C24" stroke-width="0.8" points="221.279,179.897 220.629,179.606 209.722,170.621 "/>
<line fill="none" stroke="#ED1C24" stroke-width="0.8" x1="279.396" y1="213.453" x2="221.279" y2="179.897"/>
<line fill="none" stroke="#ED1C24" stroke-width="0.8" x1="355.083" y1="279.664" x2="393.238" y2="345.879"/>
<line fill="none" stroke="#ED1C24" stroke-width="0.8" x1="292.582" y1="224.434" x2="307.596" y2="250.442"/>
<line fill="none" stroke="#6C9D31" stroke-width="0.5" x1="304.031" y1="234.283" x2="313.141" y2="250.057"/>
<line fill="none" stroke="#ED1C24" stroke-width="0.8" x1="284.045" y1="217.67" x2="298.447" y2="242.619"/>
<line fill="none" stroke="#6C9D31" stroke-width="0.5" x1="333.326" y1="263.201" x2="349.896" y2="272.766"/>
<line fill="none" stroke="#6C9D31" stroke-width="0.5" x1="298.381" y1="242.594" x2="322.34" y2="262.699"/>
<line fill="none" stroke="#ED1C24" stroke-width="0.8" x1="22.955" y1="29.57" x2="25.913" y2="21.445"/>
<line fill="none" stroke="#ED1C24" stroke-width="0.8" x1="30.564" y1="33.939" x2="48.137" y2="64.376"/>
<line fill="none" stroke="#ED1C24" stroke-width="0.8" x1="11.83" y1="20.245" x2="22.72" y2="29.382"/>
<line fill="none" stroke="#ED1C24" stroke-width="0.8" x1="38.151" y1="38.36" x2="247.409" y2="213.95"/>
<line fill="#FFFFFF" stroke="#010101" stroke-width="0.4" x1="290.57" y1="231.622" x2="314.398" y2="244.525"/>
<line fill="none" stroke="#ED1C24" stroke-width="0.8" x1="22.372" y1="29.213" x2="154.746" y2="105.64"/>
<line fill="#FFFFFF" stroke="#010101" stroke-width="0.4" x1="121.891" y1="126.265" x2="197.898" y2="169.859"/>
<line fill="none" stroke="#6C9D31" stroke-width="0.5" x1="74.838" y1="85.583" x2="137.815" y2="121.988"/>
<line fill="none" stroke="#ED1C24" stroke-width="0.8" x1="95.64" y1="104.019" x2="163.951" y2="143.908"/>
<line fill="none" stroke="#6C9D31" stroke-width="0.5" x1="50.667" y1="66.468" x2="108.232" y2="99.692"/>
<line fill="none" stroke="#6C9D31" stroke-width="0.5" x1="247.246" y1="213.891" x2="280.425" y2="233.043"/>
<line fill="none" stroke="#ED1C24" stroke-width="0.8" x1="180.744" y1="175.496" x2="247.246" y2="213.891"/>
<line fill="none" stroke="#6C9D31" stroke-width="0.5" x1="278.948" y1="258.047" x2="366.844" y2="308.794"/>
<line fill="none" stroke="#ED1C24" stroke-width="0.8" x1="192.169" y1="141.538" x2="186.45" y2="132.029"/>
<line fill="none" stroke="#ED1C24" stroke-width="0.8" x1="352.123" y1="274.666" x2="354.603" y2="278.96"/>
<line fill="none" stroke="#ED1C24" stroke-width="0.8" x1="0.346" y1="0.309" x2="27.214" y2="46.843"/>
<polyline fill="none" stroke="#ED1C24" stroke-width="0.8" points="136.564,90.464 117.187,74.121 117.067,74.021 "/>
<line fill="none" stroke="#ED1C24" stroke-width="0.8" x1="136.304" y1="90.17" x2="186.797" y2="132.539"/>
<line fill="none" stroke="#ED1C24" stroke-width="0.8" x1="354.373" y1="278.684" x2="442.01" y2="352.219"/>
<line fill="none" stroke="#ED1C24" stroke-width="0.8" x1="197.399" y1="144.807" x2="352.18" y2="274.684"/>
<line fill="none" stroke="#ED1C24" stroke-width="0.8" x1="361.842" y1="327.608" x2="460.689" y2="384.676"/>
<line fill="none" stroke="#ED1C24" stroke-width="0.8" x1="441.848" y1="352.084" x2="460.611" y2="384.584"/>
<line fill="none" stroke="#ED1C24" stroke-width="0.8" x1="0.35" y1="0.307" x2="24.64" y2="20.688"/>
<line fill="none" stroke="#ED1C24" stroke-width="0.8" x1="24.454" y1="20.604" x2="117.244" y2="74.176"/>
<line fill="none" stroke="#ED1C24" stroke-width="0.8" x1="191.921" y1="141.479" x2="197.877" y2="144.917"/>
<line fill="none" stroke="#ED1C24" stroke-width="0.8" x1="27.153" y1="46.736" x2="361.994" y2="327.704"/>
<line fill="none" stroke="#6C9D31" stroke-width="0.5" x1="259.738" y1="221.27" x2="264.71" y2="207.776"/>
<line fill="none" stroke="#ED1C24" stroke-width="0.8" x1="254.877" y1="217.788" x2="260.303" y2="202.881"/>
<line fill="none" stroke="#ED1C24" stroke-width="0.8" x1="247.219" y1="213.942" x2="252.956" y2="198.18"/>
<line fill="none" stroke="#ED1C24" stroke-width="0.8" x1="224.039" y1="194.338" x2="227.78" y2="184.061"/>
<line fill="none" stroke="#ED1C24" stroke-width="0.8" x1="242.543" y1="209.866" x2="247.911" y2="195.114"/>
<line fill="none" stroke="#ED1C24" stroke-width="0.8" x1="234.997" y1="203.16" x2="239.508" y2="190.772"/>
<line fill="none" stroke="#ED1C24" stroke-width="0.8" x1="227.521" y1="197.016" x2="231.531" y2="186.004"/>
<line fill="none" stroke="#FFF200" stroke-width="0.3" x1="283.42" y1="221.692" x2="284.169" y2="232.841"/>
<line fill="none" stroke="#6C9D31" stroke-width="0.5" x1="278.471" y1="212.725" x2="279.742" y2="227.172"/>
<line fill="none" stroke="#ED1C24" stroke-width="0.8" x1="94.716" y1="70.927" x2="97.529" y2="63.198"/>
<line fill="none" stroke="#ED1C24" stroke-width="0.8" x1="60.866" y1="51.438" x2="63.801" y2="43.376"/>
<line fill="none" stroke="#ED1C24" stroke-width="0.8" x1="74.622" y1="59.198" x2="77.492" y2="51.314"/>
<line fill="none" stroke="#ED1C24" stroke-width="0.8" x1="100.107" y1="74.225" x2="102.976" y2="66.344"/>
<line fill="none" stroke="#ED1C24" stroke-width="0.8" x1="88.135" y1="67.095" x2="91.06" y2="59.059"/>
<line fill="none" stroke="#ED1C24" stroke-width="0.8" x1="32.003" y1="34.773" x2="35.004" y2="26.529"/>
<line fill="none" stroke="#ED1C24" stroke-width="0.8" x1="42.261" y1="40.445" x2="45.102" y2="32.642"/>
<line fill="none" stroke="#ED1C24" stroke-width="0.8" x1="82.07" y1="63.583" x2="84.991" y2="55.555"/>
<line fill="none" stroke="#ED1C24" stroke-width="0.8" x1="67.837" y1="55.389" x2="70.766" y2="47.341"/>
<line fill="none" stroke="#ED1C24" stroke-width="0.8" x1="51.249" y1="45.963" x2="54.224" y2="37.792"/>
<line fill="none" stroke="#FFF200" stroke-width="0.3" x1="216.419" y1="163.192" x2="217.168" y2="174.342"/>
<line fill="none" stroke="#FFF200" stroke-width="0.3" x1="172.253" y1="126.359" x2="173.002" y2="137.508"/>
<line fill="none" stroke="#FFF200" stroke-width="0.3" x1="189.919" y1="147.692" x2="190.668" y2="158.842"/>
<line fill="none" stroke="#FFF200" stroke-width="0.3" x1="184.086" y1="140.691" x2="184.835" y2="151.841"/>
<line fill="none" stroke="#FFF200" stroke-width="0.3" x1="178.753" y1="131.359" x2="179.502" y2="142.508"/>
<line fill="none" stroke="#6C9D31" stroke-width="0.5" x1="266.804" y1="225.392" x2="268.075" y2="239.839"/>
<line fill="none" stroke="#6C9D31" stroke-width="0.5" x1="206.971" y1="153.059" x2="208.242" y2="164.006"/>
<line fill="none" stroke="#6C9D31" stroke-width="0.5" x1="213.673" y1="158.892" x2="214.707" y2="171.005"/>
<line fill="none" stroke="#6C9D31" stroke-width="0.5" x1="152.804" y1="104.392" x2="154.076" y2="118.839"/>
<line fill="none" stroke="#6C9D31" stroke-width="0.5" x1="166.304" y1="115.225" x2="167.576" y2="129.672"/>
<line fill="none" stroke="#6C9D31" stroke-width="0.5" x1="160.304" y1="109.892" x2="161.575" y2="124.339"/>
<line fill="none" stroke="#000000" stroke-width="0.4" x1="368.12" y1="309.469" x2="405.296" y2="330.722"/>
<line fill="none" stroke="#6C9D31" stroke-width="0.5" x1="405.948" y1="331.297" x2="426.594" y2="342.794"/>
<line fill="none" stroke="#6C9D31" stroke-width="0.5" x1="377.115" y1="297.422" x2="378.387" y2="311.87"/>
<line fill="none" stroke="#6C9D31" stroke-width="0.5" x1="431.907" y1="343.711" x2="433.179" y2="358.159"/>
</svg>
